<svg id="Capa_1" enable-background="new 0 0 512 512" height="512" viewBox="0 0 512 512" width="512" xmlns="http://www.w3.org/2000/svg"><g><g><path d="m444.108 85.798-158.144 7.702-158.144-7.623v-46.867c0-17.402 14.107-31.51 31.51-31.51h253.269c17.402 0 31.51 14.107 31.51 31.51v46.788z" fill="#08a9f1"/><path d="m444.11 39.01v46.87l-27.62 7.62v-54.49c0-17.4-14.11-31.51-31.51-31.51h27.62c17.4 0 31.51 14.11 31.51 31.51z" fill="#0290cf"/><path d="m444.11 85.88v418.62h-44.82l-113.33-12.25-113.32 12.25h-44.82v-418.62c0-17.41 14.11-31.51 31.51-31.51h253.27c1.32 0 2.62.08 3.89.24 15.57 1.92 27.62 15.18 27.62 31.27z" fill="#deecf1"/><path d="m444.11 85.88v418.62h-27.62v-449.89c15.57 1.92 27.62 15.18 27.62 31.27z" fill="#a8d3d8"/><path d="m190.318 379h191.292c9.766 0 17.682 7.917 17.682 17.682v107.818h-226.656v-107.818c0-9.765 7.916-17.682 17.682-17.682z" fill="#62dbfb"/><path d="m399.29 396.68v107.82h-27.62v-107.82c0-9.76-7.91-17.68-17.68-17.68h27.62c9.77 0 17.68 7.92 17.68 17.68z" fill="#01d0fb"/><path d="m52.124 400.695 5.542 28.672-5.542 28.672c-15.839 0-28.672-12.834-28.672-28.672s12.834-28.672 28.672-28.672z" fill="#8ebac5"/><path d="m203.515 400.695-5.742 30.38 5.742 26.965c15.839 0 28.672-12.834 28.672-28.672s-12.834-28.673-28.672-28.673z" fill="#8ebac5"/><path d="m399.292 275.234c0 17.194-13.939 31.133-31.133 31.133h-82.196l-63.582 39.531v-39.531h-18.614c-17.194 0-31.133-13.939-31.133-31.133 0-17.194 13.939-31.133 31.133-31.133h164.391c17.195 0 31.134 13.939 31.134 31.133z" fill="#62dbfb"/><path d="m260.484 306.37h25.476l-63.58 39.53v-17.17l34.158-21.233c1.184-.737 2.551-1.127 3.946-1.127z" fill="#01d0fb"/><path d="m399.29 275.23c0 17.2-13.94 31.14-31.13 31.14h-27.62c17.2 0 31.13-13.94 31.13-31.14 0-17.19-13.93-31.13-31.13-31.13h27.62c17.19 0 31.13 13.94 31.13 31.13z" fill="#01d0fb"/><path d="m399.292 132.661c0 17.194-13.939 31.133-31.133 31.133h-18.614v39.531l-63.582-39.531h-82.195c-17.194 0-31.133-13.939-31.133-31.133 0-17.194 13.939-31.133 31.133-31.133h164.391c17.194 0 31.133 13.939 31.133 31.133z" fill="#a2e62e"/><path d="m399.278 133.541c-.469 16.954-14.807 30.249-31.767 30.249h-17.961v39.53l-27.62-17.17v-18.44c0-2.165 1.755-3.92 3.92-3.92h14.043c16.959 0 31.296-13.295 31.765-30.248.487-17.593-13.624-32.012-31.118-32.012h27.62c17.483 0 31.604 14.419 31.118 32.011z" fill="#97d729"/><path d="m195.333 423.667 8.177 24.831v10.062c0 11.84-9.59 21.44-21.43 21.44h-108.52c-11.84 0-21.44-9.6-21.44-21.44v-10.062l8.88-24.831-8.26-32.667c4.76-37.23 36.56-66 75.08-66 20.9 0 39.82 8.47 53.52 22.17 11.55 11.55 19.38 26.81 21.55 43.83z" fill="#08a9f1"/><path d="m195.333 423.667 8.177 24.831v10.062c0 11.84-9.59 21.44-21.43 21.44h-27c11.84 0 21.43-9.6 21.43-21.44v-57.86c0-3.29-.21-6.52-.62-9.7-2.17-17.02-10-32.28-21.55-43.83-10.68-10.68-24.52-18.18-40-20.97 4.37-.79 8.88-1.2 13.48-1.2 20.9 0 39.82 8.47 53.52 22.17 11.55 11.55 19.38 26.81 21.55 43.83z" fill="#0290cf"/><path d="m203.51 400.7v47.8h-151.39v-47.8c0-3.29.21-6.52.62-9.7h150.15c.41 3.18.62 6.41.62 9.7z" fill="#deecf1"/><path d="m203.51 400.7v47.8h-27v-47.8c0-3.29-.21-6.52-.62-9.7h27c.41 3.18.62 6.41.62 9.7z" fill="#a8d3d8"/><circle cx="127.82" cy="289.167" fill="#08a9f1" r="12.5"/></g><g><path d="m488.548 497h-81.756v-100.317c0-13.886-11.297-25.183-25.183-25.183h-146.609c-4.143 0-7.5 3.357-7.5 7.5s3.357 7.5 7.5 7.5h146.609c5.614 0 10.183 4.568 10.183 10.183v100.317h-211.656v-9.5c14.036.606 27.055-8.713 30.168-22.608 6.729-1.283 12.803-4.431 17.658-8.892h120.576c4.143 0 7.5-3.357 7.5-7.5s-3.357-7.5-7.5-7.5h-110.781c1.457-4.276 2.123-9.141 1.869-13.673h108.912c4.143 0 7.5-3.357 7.5-7.5s-3.357-7.5-7.5-7.5h-113.127c-5.01-9.339-13.999-16.238-24.687-18.408-3.221-39.783-35.649-72.541-75.404-76.072v-10.152c7.32-2.974 12.5-10.152 12.5-18.528s-5.18-15.554-12.501-18.528v-184.762c0-13.239 10.771-24.01 24.01-24.01h253.269c13.239 0 24.01 10.771 24.01 24.01v383.623c0 4.143 3.357 7.5 7.5 7.5s7.5-3.357 7.5-7.5v-430.49c0-21.51-17.5-39.01-39.01-39.01h-198.598c-4.143 0-7.5 3.357-7.5 7.5s3.357 7.5 7.5 7.5h198.598c13.239 0 24.01 10.771 24.01 24.01v16.156c-6.626-5.191-14.959-8.298-24.01-8.298h-253.269c-9.051 0-17.384 3.107-24.01 8.298v-16.156c0-13.239 10.771-24.01 24.01-24.01h19.136c4.143 0 7.5-3.357 7.5-7.5s-3.357-7.5-7.5-7.5h-19.136c-21.51 0-39.01 17.5-39.01 39.01v231.63c-7.32 2.974-12.499 10.152-12.499 18.527s5.18 15.553 12.5 18.528v10.148c-39.747 3.591-72.185 36.31-75.415 76.078-16.498 3.354-28.953 17.973-28.953 35.447 0 17.621 12.668 32.332 29.374 35.523 2.896 12.922 14.451 22.61 28.235 22.61h46.759v9.5h-36.94c-4.143 0-7.5 3.357-7.5 7.5s3.357 7.5 7.5 7.5h405.169c4.143 0 7.5-3.357 7.5-7.5s-3.359-7.501-7.501-7.501zm-428.893-98.497v-.003h136.319v.004c.023.732.035 42.496.035 42.496h-136.385s.009-41.785.031-42.497zm151.36 11.064c7.984 3.033 13.673 10.765 13.673 19.8s-5.688 16.767-13.673 19.801zm-88.195-120.4c0-2.757 2.243-5 5-5s5 2.243 5 5-2.243 5-5 5-5-2.243-5-5zm5 43.333c30.653 0 58.238 21.351 65.987 51h-131.983c7.686-29.599 34.679-51 65.996-51zm-96.868 96.867c0-9.034 5.687-16.763 13.668-19.798v38.931.666c-7.981-3.035-13.668-10.765-13.668-19.799zm28.668 29.194c.004-.853.005-1.707.004-2.561h136.386c.829 8.374-5.032 16.5-13.93 16.5h-108.519c-7.687 0-13.941-6.253-13.941-13.939zm75.699 28.939h29.816v9.5h-29.816z"/><path d="m81.593 434.418c4.143 0 7.5-3.357 7.5-7.5 0-3.77 3.066-6.836 6.836-6.836s6.836 3.066 6.836 6.836c0 4.143 3.357 7.5 7.5 7.5s7.5-3.357 7.5-7.5c0-12.04-9.796-21.836-21.836-21.836s-21.836 9.796-21.836 21.836c0 4.143 3.357 7.5 7.5 7.5z"/><path d="m145.365 434.418c4.143 0 7.5-3.357 7.5-7.5 0-3.77 3.066-6.836 6.836-6.836s6.836 3.066 6.836 6.836c0 4.143 3.357 7.5 7.5 7.5s7.5-3.357 7.5-7.5c0-12.04-9.796-21.836-21.836-21.836s-21.836 9.796-21.836 21.836c0 4.143 3.358 7.5 7.5 7.5z"/><path d="m218.738 352.453c2.551 1.318 5.086 1.256 7.604-.187l61.764-38.4h80.054c21.302 0 38.633-17.331 38.633-38.633s-17.331-38.632-38.633-38.632h-164.391c-21.302 0-38.633 17.33-38.633 38.632s17.331 38.633 38.633 38.633h11.113v32.031c0 2.724 1.476 5.233 3.856 6.556zm-14.969-53.587c-13.031 0-23.633-10.602-23.633-23.633 0-13.03 10.602-23.632 23.633-23.632h164.391c13.031 0 23.633 10.602 23.633 23.632 0 13.031-10.602 23.633-23.633 23.633h-82.195c-1.399 0-2.771.392-3.96 1.131l-52.122 32.406v-26.037c0-4.143-3.357-7.5-7.5-7.5z"/><path d="m368.159 94.028h-164.39c-21.302 0-38.633 17.331-38.633 38.633s17.331 38.633 38.633 38.633h80.054l61.764 38.4c4.918 3.06 11.46-.593 11.46-6.369v-32.031h11.113c21.302 0 38.633-17.331 38.633-38.633s-17.332-38.633-38.634-38.633zm0 62.266h-18.613c-4.143 0-7.5 3.357-7.5 7.5v26.037l-52.122-32.406c-1.188-.739-2.561-1.131-3.96-1.131h-82.195c-13.031 0-23.633-10.602-23.633-23.633s10.602-23.633 23.633-23.633h164.391c13.031 0 23.633 10.602 23.633 23.633s-10.603 23.633-23.634 23.633z"/><path d="m301.854 125.862h-98.339c-4.143 0-7.5 3.357-7.5 7.5s3.357 7.5 7.5 7.5h98.339c4.143 0 7.5-3.357 7.5-7.5s-3.358-7.5-7.5-7.5z"/><path d="m265.846 275.02c0-4.143-3.357-7.5-7.5-7.5h-54.831c-4.143 0-7.5 3.357-7.5 7.5s3.357 7.5 7.5 7.5h54.831c4.142 0 7.5-3.358 7.5-7.5z"/><path d="m291.287 282.52h76.396c4.143 0 7.5-3.357 7.5-7.5s-3.357-7.5-7.5-7.5h-76.396c-4.143 0-7.5 3.357-7.5 7.5s3.358 7.5 7.5 7.5z"/><path d="m367.683 125.862h-36.318c-4.143 0-7.5 3.357-7.5 7.5s3.357 7.5 7.5 7.5h36.318c4.143 0 7.5-3.357 7.5-7.5s-3.358-7.5-7.5-7.5z"/><path d="m224.867 469.673c-4.143 0-7.5 3.357-7.5 7.5s3.357 7.5 7.5 7.5h79.278c4.143 0 7.5-3.357 7.5-7.5s-3.357-7.5-7.5-7.5z"/></g></g></svg>