<svg id="Capa_1" enable-background="new 0 0 512 512" height="512" viewBox="0 0 512 512" width="512" xmlns="http://www.w3.org/2000/svg"><g><g id="Page-1_62_"><g id="_x30_63---Chat-Bot"><path id="Shape_306_" d="m315.733 247.467v-17.067c-.028-28.265-22.935-51.172-51.2-51.2h-136.533c-28.265.028-51.172 22.935-51.2 51.2v17.067c.028 28.265 22.935 51.172 51.2 51.2h136.533c28.266-.029 51.172-22.935 51.2-51.2zm-221.866 0v-17.067c0-18.851 15.282-34.133 34.133-34.133h136.533c18.851 0 34.133 15.282 34.133 34.133v17.067c0 18.851-15.282 34.133-34.133 34.133h-136.533c-18.851 0-34.133-15.282-34.133-34.133z"/><path id="Shape_305_" d="m136.533 213.333c-14.138 0-25.6 11.462-25.6 25.6s11.462 25.6 25.6 25.6 25.6-11.462 25.6-25.6-11.461-25.6-25.6-25.6zm0 34.134c-4.713 0-8.533-3.821-8.533-8.533 0-4.713 3.821-8.533 8.533-8.533s8.533 3.821 8.533 8.533c.001 4.712-3.82 8.533-8.533 8.533z"/><path id="Shape_304_" d="m281.6 238.933c0-14.139-11.461-25.6-25.6-25.6-14.138 0-25.6 11.462-25.6 25.6s11.462 25.6 25.6 25.6c14.139 0 25.6-11.461 25.6-25.6zm-25.6 8.534c-4.713 0-8.533-3.821-8.533-8.533 0-4.713 3.821-8.533 8.533-8.533 4.713 0 8.533 3.821 8.533 8.533s-3.82 8.533-8.533 8.533z"/><path id="Shape_303_" d="m452.267 0h-128c-32.939.042-59.644 26.709-59.733 59.648-16.496-5.57-33.788-8.424-51.2-8.448h-34.134c-81.205-.192-149.936 59.918-160.563 140.425-11.394 5.785-18.591 17.463-18.637 30.242v51.2c0 9.053 3.596 17.735 9.997 24.136s15.083 9.997 24.136 9.997h17.57c3.977 35.006 31.241 62.829 66.159 67.516-25.672 17.468-41.044 46.5-41.062 77.551v34.133c0 14.138 11.462 25.6 25.6 25.6h187.733c14.138 0 25.6-11.461 25.6-25.6v-34.133c-.018-31.051-15.391-60.083-41.062-77.551 34.918-4.687 62.182-32.509 66.159-67.516h17.57c18.851 0 34.133-15.282 34.133-34.133v-51.2c.104-14.763-9.414-27.875-23.484-32.35-.751-.273-1.57-.401-2.355-.614l20.463-18.236h65.109c32.974-.038 59.696-26.759 59.733-59.733v-51.2c-.037-32.975-26.758-59.696-59.732-59.734zm-273.067 68.267h34.133c17.504.037 34.855 3.268 51.2 9.532v18.278c-16.142-7.076-33.575-10.734-51.2-10.743h-34.133c-60.805.07-113.198 42.84-125.44 102.4h-17.297c12.21-69.227 72.442-119.64 142.737-119.467zm-162.133 204.8v-51.2c0-9.426 7.641-17.067 17.067-17.067h17.502c-.188 2.833-.435 5.649-.435 8.533v76.8h-17.068c-9.425 0-17.066-7.641-17.066-17.066zm162.133 102.4h34.133v17.067c0 9.426-7.641 17.067-17.067 17.067s-17.067-7.641-17.067-17.067v-17.067zm119.467 76.8v34.133c0 4.713-3.821 8.533-8.533 8.533h-187.734c-4.713 0-8.533-3.82-8.533-8.533v-34.133c.053-39.088 29.425-71.915 68.267-76.297v16.563c0 18.851 15.282 34.133 34.133 34.133s34.133-15.282 34.133-34.133v-16.563c38.842 4.382 68.214 37.209 68.267 76.297zm-34.134-93.867h-136.533c-32.974-.038-59.696-26.759-59.733-59.733v-85.333c.07-61.238 49.695-110.863 110.933-110.934h34.133c17.927.048 35.572 4.468 51.405 12.877 2.109 27.922 23.291 50.653 50.995 54.724v26.266c.017 5.997 3.235 11.528 8.439 14.507 0 .853.094 1.707.094 2.56v80.384l-53.47 30.549h-23.33c-4.713 0-8.533 3.82-8.533 8.533s3.821 8.533 8.533 8.533h25.6c1.496.005 2.968-.383 4.267-1.126l44.732-25.6c-7.18 25.852-30.701 43.757-57.532 43.793zm93.867-153.6c1.783-.01 3.553.293 5.231.896 7.073 2.2 11.877 8.764 11.836 16.171v51.2c0 9.426-7.641 17.067-17.067 17.067h-17.067v-76.8c0-.759-.077-1.51-.094-2.27.992-.559 1.926-1.214 2.79-1.954l4.838-4.267zm136.533-93.867c-.028 23.552-19.114 42.638-42.667 42.667h-65.109c-4.136.019-8.125 1.535-11.23 4.267l-43.127 38.4v-26.266c-.025-8.451-6.23-15.611-14.592-16.836-20.972-3.079-36.537-21.035-36.608-42.231v-51.2c.028-23.552 19.114-42.638 42.667-42.667h128c23.552.028 42.638 19.114 42.667 42.667v51.199z"/><path id="Shape_302_" d="m315.733 59.733h8.533c4.713 0 8.533-3.821 8.533-8.533s-3.82-8.533-8.533-8.533h-8.533c-4.713 0-8.533 3.821-8.533 8.533s3.821 8.533 8.533 8.533z"/><path id="Shape_301_" d="m460.8 42.667h-102.4c-4.713 0-8.533 3.821-8.533 8.533s3.82 8.533 8.533 8.533h102.4c4.713 0 8.533-3.821 8.533-8.533s-3.82-8.533-8.533-8.533z"/><path id="Shape_300_" d="m460.8 76.8h-145.067c-4.713 0-8.533 3.821-8.533 8.533s3.821 8.533 8.533 8.533h145.067c4.713 0 8.533-3.821 8.533-8.533s-3.82-8.533-8.533-8.533z"/><path id="Shape_299_" d="m375.467 110.933h-59.733c-4.713 0-8.533 3.821-8.533 8.533 0 4.713 3.821 8.533 8.533 8.533h59.733c4.713 0 8.533-3.821 8.533-8.533s-3.82-8.533-8.533-8.533z"/></g></g></g></svg>