<svg id="filled_outline" height="512" viewBox="0 0 512 512" width="512" xmlns="http://www.w3.org/2000/svg" data-name="filled outline"><g fill="#ededeb"><path d="m331.985 352h72.03a32 32 0 0 1 31.78 35.739l-10.133 86.13a16 16 0 0 1 -15.89 14.131h-83.544a16 16 0 0 1 -15.89-14.131l-10.133-86.13a32 32 0 0 1 31.78-35.739z"/><path d="m456 384v94.7a9.3 9.3 0 0 0 9.3 9.3 9.3 9.3 0 0 0 8.821-6.358l11.658-48.409a80.009 80.009 0 0 0 2.221-18.733v-30.5a16 16 0 0 0 -16-16 16 16 0 0 0 -16 16z"/><path d="m280 272a48 48 0 0 0 48 48h80a48 48 0 0 0 48-48 72 72 0 0 0 -72-72h-32a72 72 0 0 0 -72 72z"/></g><path d="m430.742 217.258a71.7 71.7 0 0 1 17.258 46.742 48 48 0 0 1 -48 48h-80a47.78 47.78 0 0 1 -29.7-10.3 47.9 47.9 0 0 0 37.7 18.3h80a48 48 0 0 0 48-48 71.822 71.822 0 0 0 -25.258-54.742z" fill="#cececc"/><rect fill="#3098c6" height="48" rx="24" width="112" x="312" y="240"/><circle cx="96" cy="96" fill="#96d320" r="72"/><path d="m133.482 34.518a72.01 72.01 0 0 1 -98.964 98.964 72 72 0 1 0 98.964-98.964z" fill="#85b218"/><path d="m128 136a32 32 0 0 0 -32-32 32 32 0 0 0 -32 32v24.5a72 72 0 0 0 64 0z" fill="#ff5086"/><path d="m280 384v94.7a9.3 9.3 0 0 1 -9.3 9.3 9.3 9.3 0 0 1 -8.821-6.358l-11.658-48.409a80.009 80.009 0 0 1 -2.221-18.733v-30.5a16 16 0 0 1 16-16 16 16 0 0 1 16 16z" fill="#ededeb"/><path d="m64 143.554v16.956a72.051 72.051 0 0 0 64-.012v-24.498a31.846 31.846 0 0 0 -3.569-14.681 71.785 71.785 0 0 1 -52.431 22.681 72.621 72.621 0 0 1 -8-.446z" fill="#e03f81"/><circle cx="96" cy="80" fill="#fccca7" r="24"/><path d="m108.494 59.506a24 24 0 0 1 -32.988 32.988 24 24 0 1 0 32.988-32.988z" fill="#e5b391"/><path d="m232 72a48 48 0 0 1 -19.2 38.4l-12.8 9.6h240a48 48 0 0 0 48-48 48 48 0 0 0 -48-48h-160a48 48 0 0 0 -48 48z" fill="#b7b2a5"/><path d="m454.834 26.347a311.035 311.035 0 0 1 -222.834 93.653h208a48 48 0 0 0 48-48 48.014 48.014 0 0 0 -33.166-45.653z" fill="#999488"/><path d="m216 256a48 48 0 0 0 19.2 38.4l12.8 9.6h-176a48 48 0 0 1 -48-48 48 48 0 0 1 48-48h96a48 48 0 0 1 48 48z" fill="#26bfb0"/><path d="m235.2 294.4a48 48 0 0 1 -19.2-38.4 47.882 47.882 0 0 0 -16.876-36.527 191.919 191.919 0 0 1 -137.737 83.335 48.136 48.136 0 0 0 10.613 1.192h176z" fill="#1c998a"/><path d="m478.575 369.425a15.9 15.9 0 0 1 1.425 6.575v30.5a80.009 80.009 0 0 1 -2.223 18.73l-11.658 48.409a9.213 9.213 0 0 1 -10.031 6.27 9.292 9.292 0 0 0 18.031 1.73l11.658-48.409a80.009 80.009 0 0 0 2.223-18.73v-30.5a15.99 15.99 0 0 0 -9.425-14.575z" fill="#cececc"/><path d="m270.575 369.425a15.9 15.9 0 0 1 1.425 6.575v94.7a9.255 9.255 0 0 1 -10.536 9.209l.417 1.731a9.3 9.3 0 0 0 18.119-2.94v-94.7a15.99 15.99 0 0 0 -9.425-14.575z" fill="#cececc"/><path d="m311.911 479.121a15.994 15.994 0 0 0 14.317 8.879h83.544a16 16 0 0 0 15.89-14.131l10.133-86.13a31.87 31.87 0 0 0 -1.108-12.869 144.122 144.122 0 0 1 -122.776 104.251z" fill="#cececc"/><path d="m16 256a56.063 56.063 0 0 0 56 56h176a8 8 0 0 0 4.8-14.4l-12.8-9.6a40.191 40.191 0 0 1 -16-32 56.063 56.063 0 0 0 -56-56h-96a56.063 56.063 0 0 0 -56 56zm56-40h96a40.045 40.045 0 0 1 40 40 56.32 56.32 0 0 0 16.818 40h-152.818a40 40 0 0 1 0-80z"/><path d="m464 272a80.091 80.091 0 0 0 -80-80h-32a80.091 80.091 0 0 0 -80 80 56.063 56.063 0 0 0 56 56h80a56.063 56.063 0 0 0 56-56zm-56 40h-80a40.045 40.045 0 0 1 -40-40 64.072 64.072 0 0 1 64-64h32a64.072 64.072 0 0 1 64 64 40.045 40.045 0 0 1 -40 40z"/><path d="m400 232h-64a32 32 0 0 0 0 64h64a32 32 0 0 0 0-64zm0 48h-64a16 16 0 0 1 0-32h64a16 16 0 0 1 0 32z"/><path d="m404.015 344h-72.03a40 40 0 0 0 -39.726 44.674l10.133 86.13a24.005 24.005 0 0 0 23.836 21.196h83.544a24.005 24.005 0 0 0 23.836-21.2l10.133-86.13a40 40 0 0 0 -39.726-44.67zm23.835 42.805-10.133 86.13a8 8 0 0 1 -7.945 7.065h-83.544a8 8 0 0 1 -7.945-7.065l-10.133-86.13a24 24 0 0 1 23.835-26.805h72.03a24 24 0 0 1 23.835 26.805z"/><path d="m240 384v30.5a88.129 88.129 0 0 0 2.445 20.6l11.655 48.416c.054.221.116.44.189.657a17.3 17.3 0 0 0 33.711-5.473v-94.7a24 24 0 0 0 -48 0zm32 0v94.7a1.3 1.3 0 0 1 -2.458.583l-11.542-47.924a72.059 72.059 0 0 1 -2-16.856v-30.503a8 8 0 0 1 16 0z"/><path d="m472 360a24.027 24.027 0 0 0 -24 24v94.7a17.3 17.3 0 0 0 33.708 5.471c.073-.217.135-.436.189-.657l11.658-48.411a88.129 88.129 0 0 0 2.445-20.603v-30.5a24.027 24.027 0 0 0 -24-24zm8 54.5a72.059 72.059 0 0 1 -2 16.856l-11.541 47.926a1.3 1.3 0 0 1 -2.459-.582v-94.7a8 8 0 0 1 16 0z"/><circle cx="336" cy="264" r="8"/><circle cx="400" cy="264" r="8"/><path d="m96 16a80 80 0 1 0 80 80 80.091 80.091 0 0 0 -80-80zm-24 139.313v-19.313a24 24 0 0 1 48 0v19.313a63.79 63.79 0 0 1 -48 0zm8-75.313a16 16 0 1 1 16 16 16.019 16.019 0 0 1 -16-16zm56 65.907v-9.907a39.994 39.994 0 0 0 -17.632-33.146 32 32 0 1 0 -44.736 0 39.994 39.994 0 0 0 -17.632 33.146v9.907a64 64 0 1 1 80 0z"/><path d="m440 16h-160a56.063 56.063 0 0 0 -56 56 40.191 40.191 0 0 1 -16 32l-12.8 9.6a8 8 0 0 0 4.8 14.4h240a56 56 0 0 0 0-112zm0 96h-216.817a56.317 56.317 0 0 0 16.817-40 40.045 40.045 0 0 1 40-40h160a40 40 0 0 1 0 80z"/></svg>