<svg id="Layer_1" enable-background="new 0 0 256 256" height="512" viewBox="0 0 256 256" width="512" xmlns="http://www.w3.org/2000/svg"><path d="m242 129.551v-72.558c0-20.807-16.867-37.674-37.674-37.674h-101.861c-20.807 0-37.674 16.867-37.674 37.674v72.558c0 20.807 16.868 37.674 37.674 37.674h30.903 62.584 8.373c20.808.001 37.675-16.867 37.675-37.674z" fill="#4671c6"/><path d="m204.326 169.226h-101.861c-21.876 0-39.674-17.798-39.674-39.674v-72.559c0-21.876 17.798-39.674 39.674-39.674h101.861c21.876 0 39.674 17.798 39.674 39.674v72.558c0 21.877-17.798 39.675-39.674 39.675zm-101.861-147.907c-19.671 0-35.674 16.003-35.674 35.674v72.558c0 19.671 16.003 35.674 35.674 35.674h101.861c19.671 0 35.674-16.003 35.674-35.674v-72.558c0-19.671-16.003-35.674-35.674-35.674z" fill="#3762cc"/><path d="m153.535 49.179h-101.861c-20.806 0-37.674 16.868-37.674 37.675v72.558c0 20.807 16.868 37.674 37.674 37.674h30.903l-2.26 35.131c-.222 3.459 3.615 5.674 6.499 3.752l58.346-38.883h8.373c20.807 0 37.674-16.867 37.674-37.674v-72.558c0-20.807-16.867-37.675-37.674-37.675z" fill="#a4c9ff"/><path d="m138.884 154.525h-71.86c-8.67 0-15.698-7.028-15.698-15.698v-47.79c0-8.67 7.028-15.698 15.698-15.698h71.86c8.67 0 15.698 7.028 15.698 15.698v47.791c-.001 8.669-7.029 15.697-15.698 15.697z" fill="#e0ebfc"/><path d="m67.023 134.641v-39.419c0-2.312 1.874-4.186 4.186-4.186h63.489c2.312 0 4.186 1.874 4.186 4.186v39.419c0 2.312-1.874 4.186-4.186 4.186h-63.489c-2.312 0-4.186-1.874-4.186-4.186z" fill="#6bdddd"/><path d="m124.407 75.339h-42.907c0-9.247 7.496-16.743 16.743-16.743h9.422c9.246 0 16.742 7.496 16.742 16.743z" fill="#f9a7a7"/><path d="m154.581 133.246v-36.628c7.899 0 14.302 6.403 14.302 14.302v8.023c.001 7.9-6.403 14.303-14.302 14.303z" fill="#f9cfcf"/><path d="m51.326 133.246c-7.899 0-14.302-6.403-14.302-14.302v-8.023c0-7.899 6.403-14.302 14.302-14.302z" fill="#f9cfcf"/><path d="m126.674 183.48h-46.743c-3.661 0-6.629-2.968-6.629-6.629 0-12.331 9.996-22.326 22.326-22.326h15.347c12.331 0 22.326 9.996 22.326 22.326.001 3.661-2.966 6.629-6.627 6.629z" fill="#e0ebfc"/><path d="m85.512 119.038c-3.468 0-6.279-2.811-6.279-6.279v-7.498c0-3.468 2.811-6.279 6.279-6.279 3.468 0 6.279 2.811 6.279 6.279v7.498c0 3.468-2.811 6.279-6.279 6.279z" fill="#4671c6"/><path d="m121.093 119.038c-3.468 0-6.279-2.811-6.279-6.279v-7.498c0-3.468 2.811-6.279 6.279-6.279 3.468 0 6.279 2.811 6.279 6.279v7.498c0 3.468-2.811 6.279-6.279 6.279z" fill="#4671c6"/><path d="m103.303 133.246c-5.622 0-10.195-4.573-10.195-10.195 0-1.104.896-2 2-2s2 .896 2 2c0 3.416 2.779 6.195 6.195 6.195s6.194-2.779 6.194-6.195c0-1.104.896-2 2-2s2 .896 2 2c0 5.622-4.573 10.195-10.194 10.195z" fill="#4671c6"/><g fill="#3762cc"><path d="m84.498 238.679c-1.063 0-2.128-.277-3.095-.835-2.053-1.185-3.233-3.39-3.082-5.754l2.124-33.003h-28.77c-21.877-.001-39.675-17.798-39.675-39.675v-72.558c0-21.876 17.798-39.674 39.675-39.674h101.86c21.876 0 39.674 17.798 39.674 39.674v72.558c0 21.876-17.798 39.674-39.674 39.674h-7.768l-57.842 38.547c-1.042.696-2.233 1.046-3.427 1.046zm-32.823-187.499c-19.671 0-35.675 16.003-35.675 35.674v72.558c0 19.671 16.004 35.674 35.675 35.674h30.903c.553 0 1.081.229 1.459.632s.572.945.537 1.497l-2.261 35.131c-.055.848.353 1.608 1.089 2.034.738.425 1.6.396 2.305-.074l58.346-38.883c.329-.219.715-.336 1.109-.336h8.373c19.671 0 35.674-16.003 35.674-35.674v-72.559c0-19.671-16.003-35.674-35.674-35.674z"/><path d="m138.884 156.525h-71.86c-9.759 0-17.698-7.939-17.698-17.698v-47.79c0-9.759 7.939-17.698 17.698-17.698h71.86c9.758 0 17.697 7.939 17.697 17.698v47.791c0 9.758-7.939 17.697-17.697 17.697zm-71.861-79.186c-7.554 0-13.698 6.145-13.698 13.698v47.791c0 7.553 6.145 13.698 13.698 13.698h71.86c7.553 0 13.697-6.145 13.697-13.698v-47.791c0-7.553-6.145-13.698-13.697-13.698z"/><path d="m134.698 140.828h-63.489c-3.411 0-6.186-2.775-6.186-6.186v-39.419c0-3.411 2.774-6.186 6.186-6.186h63.489c3.411 0 6.186 2.775 6.186 6.186v39.419c0 3.411-2.775 6.186-6.186 6.186zm-63.489-47.791c-1.205 0-2.186.98-2.186 2.186v39.419c0 1.206.98 2.186 2.186 2.186h63.489c1.205 0 2.186-.98 2.186-2.186v-39.419c0-1.206-.98-2.186-2.186-2.186z"/><path d="m124.407 77.339h-42.907c-1.104 0-2-.896-2-2 0-10.335 8.407-18.743 18.742-18.743h9.422c10.335 0 18.743 8.408 18.743 18.743 0 1.104-.895 2-2 2zm-40.772-4h38.638c-.979-7.187-7.157-12.743-14.608-12.743h-9.422c-7.451 0-13.629 5.556-14.608 12.743z"/><path d="m154.581 135.246c-1.104 0-2-.896-2-2v-36.628c0-1.104.896-2 2-2 8.989 0 16.303 7.313 16.303 16.302v8.023c0 8.99-7.314 16.303-16.303 16.303zm2-36.465v32.303c5.836-.958 10.303-6.037 10.303-12.14v-8.023c0-6.104-4.467-11.183-10.303-12.14z"/><path d="m51.325 135.246c-8.989 0-16.302-7.313-16.302-16.303v-8.023c0-8.989 7.313-16.302 16.302-16.302 1.104 0 2 .896 2 2v36.628c0 1.105-.895 2-2 2zm-2-36.465c-5.836.958-10.302 6.037-10.302 12.14v8.023c0 6.103 4.466 11.182 10.302 12.14z"/><path d="m126.674 185.48h-46.743c-4.758 0-8.628-3.871-8.628-8.628 0-13.414 10.913-24.327 24.326-24.327h15.347c13.414 0 24.327 10.913 24.327 24.327 0 4.757-3.871 8.628-8.629 8.628zm-31.045-28.955c-11.208 0-20.326 9.119-20.326 20.327 0 2.552 2.076 4.628 4.628 4.628h46.743c2.553 0 4.629-2.076 4.629-4.628 0-11.208-9.119-20.327-20.327-20.327z"/></g></svg>