<svg xmlns="http://www.w3.org/2000/svg" width="9.875" height="16.159" viewBox="0 0 9.875 16.159">
  <path id="_Icon_Сolor" data-name="🎨 Icon Сolor" d="M9.875.449A.45.45,0,0,0,9.426,0H7.182A4.282,4.282,0,0,0,2.693,4.04V6.464H.449A.449.449,0,0,0,0,6.912V9.247A.449.449,0,0,0,.449,9.7H2.693V15.71a.449.449,0,0,0,.449.449H5.835a.45.45,0,0,0,.449-.449V9.7H8.635a.451.451,0,0,0,.434-.329l.647-2.334a.449.449,0,0,0-.432-.569h-3V4.04a.856.856,0,0,1,.9-.808H9.426a.45.45,0,0,0,.449-.449Z" fill="#fff"/>
</svg>
