<svg height="5.651" viewBox="0 0 5.64 5.651" width="5.64" xmlns="http://www.w3.org/2000/svg">
    <g data-name="Group 1314" id="Group_1314" transform="translate(0)">
        <g data-name="Group 774" id="Group_774" transform="translate(0)">
            <g data-name="Group 768" id="Group_768">
                <path
                    d="M1097.545,723.951a2.764,2.764,0,0,1-1.994-.831,2.821,2.821,0,0,1,0-3.989,2.809,2.809,0,0,1,3.989,0,2.825,2.825,0,0,1-1.994,4.82Zm0-5.318a2.493,2.493,0,0,0-1.766,4.259,2.517,2.517,0,0,0,1.766.727,2.493,2.493,0,0,0,1.766-4.259A2.516,2.516,0,0,0,1097.545,718.633Z"
                    data-name="Path 160" fill="#2eb847" id="Path_160"
                    transform="translate(-1094.725 -718.3)" />
            </g>
            <g data-name="Group 769" id="Group_769" transform="translate(0.834 0.815)">
                <rect data-name="Rectangle 7" fill="#2eb847" height="0.332" id="Rectangle_7"
                    transform="translate(3.996 0.235) rotate(135)" width="5.318" />
            </g>
            <g data-name="Group 772" id="Group_772" transform="translate(0.182 0.145)">
                <g data-name="Group 770" id="Group_770">
                    <path
                        d="M1095.683,720.974a1.424,1.424,0,0,0,1.5-.374,1.477,1.477,0,0,0,.374-1.5l.333-.1a1.781,1.781,0,0,1-.436,1.828,1.823,1.823,0,0,1-1.288.54,1.677,1.677,0,0,1-.561-.1Z"
                        data-name="Path 161" fill="#2eb847" id="Path_161"
                        transform="translate(-1095.6 -719)" />
                </g>
                <g data-name="Group 771" id="Group_771" transform="translate(2.924 2.981)">
                    <path
                        d="M1109.765,735.708a1.78,1.78,0,0,1,.436-1.828,1.812,1.812,0,0,1,1.828-.436l-.1.332a1.424,1.424,0,0,0-1.5.374,1.521,1.521,0,0,0-.374,1.5Z"
                        data-name="Path 162" fill="#2eb847" id="Path_162"
                        transform="translate(-1109.677 -733.35)" />
                </g>
            </g>
            <g data-name="Group 773" id="Group_773" transform="translate(0.839 0.828)">
                <rect data-name="Rectangle 8" fill="#2eb847" height="0.332" id="Rectangle_8"
                    transform="translate(3.76 3.996) rotate(-135)" width="5.318" />
            </g>
        </g>
    </g>
</svg>
